<svg xmlns="http://www.w3.org/2000/svg" width="86.11" height="37" viewBox="0 0 86.11 37">
  <g id="Logo" transform="translate(0.5 0.5)">
    <rect id="Rectangle_18" data-name="Rectangle 18" width="4.485" height="36" fill="#231f20" stroke="#231f20" stroke-miterlimit="10" stroke-width="1"/>
    <line id="Line_22" data-name="Line 22" x1="5.177" transform="translate(31.953 36)" fill="none" stroke="#231f20" stroke-miterlimit="10" stroke-width="1"/>
    <line id="Line_23" data-name="Line 23" x1="5.18" transform="translate(57.086)" fill="none" stroke="#231f20" stroke-miterlimit="10" stroke-width="1"/>
    <path id="Path_6" data-name="Path 6" d="M118.59.5h19.96l-2.59,3.708H118.59Z" transform="translate(-86.401 -0.5)" fill="#231f20" stroke="#231f20" stroke-miterlimit="10" stroke-width="1"/>
    <path id="Path_7" data-name="Path 7" d="M205.607,4.208,208.2.5H203.02l-2.59,3.708" transform="translate(-145.931 -0.5)" fill="none" stroke="#231f20" stroke-miterlimit="10" stroke-width="1"/>
    <path id="Path_8" data-name="Path 8" d="M175.67,118.9v3.708H155.71l2.59-3.708Z" transform="translate(-113.403 -86.608)" fill="#231f20" stroke="#231f20" stroke-miterlimit="10" stroke-width="1"/>
    <path id="Path_9" data-name="Path 9" d="M259.032,55.115l-12.852,18.4h5.177l10.265-14.7,2.59-3.708-2.59-3.705" transform="translate(-179.212 -37.518)" fill="#313d4d" stroke="#231f20" stroke-miterlimit="10" stroke-width="1"/>
    <path id="Path_10" data-name="Path 10" d="M260.545,18.085,248.26.5h5.18l9.695,13.88,2.59,3.705-2.59,3.708" transform="translate(-180.725 -0.5)" fill="#313d4d" stroke="#231f20" stroke-miterlimit="10" stroke-width="1"/>
    <path id="Path_11" data-name="Path 11" d="M36.8,22.652l-2.59-3.708,2.59-3.708L47.095.5h5.177L39.387,18.944" transform="translate(-25.019 -0.5)" fill="#313d4d" stroke="#231f20" stroke-miterlimit="10" stroke-width="1"/>
    <path id="Path_12" data-name="Path 12" d="M36.8,54.55l-2.59,3.708,2.59,3.708L46.465,75.8h5.18L39.387,58.258" transform="translate(-25.019 -39.802)" fill="#313d4d" stroke="#231f20" stroke-miterlimit="10" stroke-width="1"/>
    <line id="Line_24" data-name="Line 24" x1="5.18" transform="translate(22.069)" fill="#313d4d" stroke="#231f20" stroke-miterlimit="10" stroke-width="1"/>
    <path id="Path_13" data-name="Path 13" d="M148.037.5l-2.59,3.709-19.96,28.582L122.9,36.5H117.72l2.59-3.709L140.27,4.209,142.86.5Z" transform="translate(-85.77 -0.5)" fill="#313d4d" stroke="#231f20" stroke-miterlimit="10" stroke-width="1"/>
    <line id="Line_25" data-name="Line 25" transform="translate(48.576 19.606)" fill="none" stroke="#231f20" stroke-miterlimit="10" stroke-width="1"/>
  </g>
</svg>
